<svg xmlns="http://www.w3.org/2000/svg" xmlns:xlink="http://www.w3.org/1999/xlink" version="1.1" x="0px" y="0px" viewBox="0 0 100 125" enable-background="new 0 0 100 100" xml:space="preserve"><path d="M74.772,30.509c-1.926-0.943-4.015-1.421-6.205-1.421c-1.776,0-3.542,0.317-5.246,0.904v-8.118H30.916v20.668h4.395  c0.553,0,1,0.447,1,1v12.5c0,0.551-0.447,1-1,1H25.144c-0.553,0-1-0.449-1-1v-12.5c0-0.553,0.447-1,1-1h4.396V21.875h-12.72v51.25  c0,2.762,2.238,5,5,5h36.5c2.709,0,4.902-2.158,4.984-4.848c0.122,0.004,0.009-6.061,0.133-6.061  c6.881,0,13.849-4.594,17.388-11.828C85.598,45.638,82.883,34.478,74.772,30.509 M75.437,52.752  c-2.501,5.111-7.229,8.545-11.765,8.545c-0.119,0-0.233-0.014-0.351-0.018V36.555c1.683-0.94,3.478-1.467,5.246-1.467  c1.269,0,2.47,0.272,3.569,0.81C77.273,38.412,78.754,45.973,75.437,52.752"/><text x="0" y="115" fill="#000000" font-size="5px" font-weight="bold" font-family="'Helvetica Neue', Helvetica, Arial-Unicode, Arial, Sans-serif">Created by Oleg Frolov</text><text x="0" y="120" fill="#000000" font-size="5px" font-weight="bold" font-family="'Helvetica Neue', Helvetica, Arial-Unicode, Arial, Sans-serif">from the Noun Project</text></svg>